<mxfile host="app.diagrams.net" modified="2024-02-07T22:54:24.935Z" agent="Mozilla/5.0 (X11; Linux x86_64) AppleWebKit/537.36 (KHTML, like Gecko) Chrome/120.0.0.0 Safari/537.36" etag="Kt69rHQ0fcPw5fiOz5T3" version="23.1.1" type="device">
  <diagram name="Page-1" id="-3makZB-rpCThMNZgR7a">
    <mxGraphModel dx="1152" dy="650" grid="1" gridSize="10" guides="1" tooltips="1" connect="1" arrows="1" fold="1" page="1" pageScale="1" pageWidth="827" pageHeight="1169" math="0" shadow="0">
      <root>
        <mxCell id="0" />
        <mxCell id="1" parent="0" />
        <mxCell id="o_RwluyRDH7w843e0NGT-1" style="edgeStyle=orthogonalEdgeStyle;shape=connector;rounded=0;orthogonalLoop=1;jettySize=auto;html=1;labelBackgroundColor=default;strokeColor=#808080;strokeWidth=2;align=center;verticalAlign=middle;fontFamily=Helvetica;fontSize=11;fontColor=default;startArrow=none;startFill=0;endArrow=open;endFill=0;exitX=1;exitY=0.5;exitDx=0;exitDy=0;exitPerimeter=0;" edge="1" parent="1" source="o_RwluyRDH7w843e0NGT-5" target="o_RwluyRDH7w843e0NGT-3">
          <mxGeometry relative="1" as="geometry" />
        </mxCell>
        <mxCell id="o_RwluyRDH7w843e0NGT-2" style="edgeStyle=orthogonalEdgeStyle;shape=connector;rounded=0;orthogonalLoop=1;jettySize=auto;html=1;labelBackgroundColor=default;strokeColor=#808080;strokeWidth=2;align=center;verticalAlign=middle;fontFamily=Helvetica;fontSize=11;fontColor=default;startArrow=open;startFill=0;endArrow=open;endFill=0;" edge="1" parent="1" source="o_RwluyRDH7w843e0NGT-3" target="o_RwluyRDH7w843e0NGT-4">
          <mxGeometry relative="1" as="geometry" />
        </mxCell>
        <mxCell id="o_RwluyRDH7w843e0NGT-3" value="Lambda function" style="sketch=0;outlineConnect=0;fontColor=#232F3E;gradientColor=none;fillColor=#ED7100;strokeColor=none;dashed=0;verticalLabelPosition=bottom;verticalAlign=top;align=center;html=1;fontSize=12;fontStyle=0;aspect=fixed;pointerEvents=1;shape=mxgraph.aws4.lambda_function;" vertex="1" parent="1">
          <mxGeometry x="410" y="415.5" width="78" height="78" as="geometry" />
        </mxCell>
        <mxCell id="o_RwluyRDH7w843e0NGT-4" value="RDS" style="sketch=0;points=[[0,0,0],[0.25,0,0],[0.5,0,0],[0.75,0,0],[1,0,0],[0,1,0],[0.25,1,0],[0.5,1,0],[0.75,1,0],[1,1,0],[0,0.25,0],[0,0.5,0],[0,0.75,0],[1,0.25,0],[1,0.5,0],[1,0.75,0]];outlineConnect=0;fontColor=#232F3E;fillColor=#C925D1;strokeColor=#ffffff;dashed=0;verticalLabelPosition=bottom;verticalAlign=top;align=center;html=1;fontSize=12;fontStyle=0;aspect=fixed;shape=mxgraph.aws4.resourceIcon;resIcon=mxgraph.aws4.rds;fontFamily=Helvetica;" vertex="1" parent="1">
          <mxGeometry x="660" y="415.5" width="78" height="78" as="geometry" />
        </mxCell>
        <mxCell id="o_RwluyRDH7w843e0NGT-5" value="Elastic Container&lt;br&gt;Registry" style="sketch=0;points=[[0,0,0],[0.25,0,0],[0.5,0,0],[0.75,0,0],[1,0,0],[0,1,0],[0.25,1,0],[0.5,1,0],[0.75,1,0],[1,1,0],[0,0.25,0],[0,0.5,0],[0,0.75,0],[1,0.25,0],[1,0.5,0],[1,0.75,0]];outlineConnect=0;fontColor=#232F3E;fillColor=#ED7100;strokeColor=#ffffff;dashed=0;verticalLabelPosition=bottom;verticalAlign=top;align=center;html=1;fontSize=12;fontStyle=0;aspect=fixed;shape=mxgraph.aws4.resourceIcon;resIcon=mxgraph.aws4.ecr;fontFamily=Helvetica;" vertex="1" parent="1">
          <mxGeometry x="332" y="124" width="78" height="78" as="geometry" />
        </mxCell>
        <mxCell id="o_RwluyRDH7w843e0NGT-6" value="Docker &lt;br&gt;Image" style="sketch=0;points=[[0,0,0],[0.25,0,0],[0.5,0,0],[0.75,0,0],[1,0,0],[0,1,0],[0.25,1,0],[0.5,1,0],[0.75,1,0],[1,1,0],[0,0.25,0],[0,0.5,0],[0,0.75,0],[1,0.25,0],[1,0.5,0],[1,0.75,0]];outlineConnect=0;fontColor=#232F3E;fillColor=#ED7100;strokeColor=#ffffff;dashed=0;verticalLabelPosition=bottom;verticalAlign=top;align=center;html=1;fontSize=12;fontStyle=0;aspect=fixed;shape=mxgraph.aws4.resourceIcon;resIcon=mxgraph.aws4.containers;fontFamily=Helvetica;" vertex="1" parent="1">
          <mxGeometry x="223" y="220" width="40" height="40" as="geometry" />
        </mxCell>
        <mxCell id="o_RwluyRDH7w843e0NGT-8" style="edgeStyle=orthogonalEdgeStyle;shape=connector;rounded=0;orthogonalLoop=1;jettySize=auto;html=1;labelBackgroundColor=default;strokeColor=#808080;strokeWidth=2;align=center;verticalAlign=middle;fontFamily=Helvetica;fontSize=11;fontColor=default;startArrow=none;startFill=0;endArrow=open;endFill=0;exitX=1;exitY=0.5;exitDx=0;exitDy=0;exitPerimeter=0;" edge="1" parent="1" source="o_RwluyRDH7w843e0NGT-24" target="o_RwluyRDH7w843e0NGT-5">
          <mxGeometry relative="1" as="geometry">
            <mxPoint x="148" y="163.10000000000002" as="sourcePoint" />
          </mxGeometry>
        </mxCell>
        <mxCell id="o_RwluyRDH7w843e0NGT-9" value="" style="shape=image;html=1;verticalAlign=top;verticalLabelPosition=bottom;labelBackgroundColor=#ffffff;imageAspect=0;aspect=fixed;image=https://cdn4.iconfinder.com/data/icons/scripting-and-programming-languages/512/660277-Python_logo-128.png;fontFamily=Helvetica;fontSize=11;fontColor=default;" vertex="1" parent="1">
          <mxGeometry x="218" y="184" width="50" height="50" as="geometry" />
        </mxCell>
        <mxCell id="o_RwluyRDH7w843e0NGT-18" style="shape=connector;rounded=0;orthogonalLoop=1;jettySize=auto;html=1;labelBackgroundColor=default;strokeColor=#808080;strokeWidth=2;align=center;verticalAlign=middle;fontFamily=Helvetica;fontSize=11;fontColor=default;startArrow=none;startFill=0;endArrow=open;endFill=0;dashed=1;dashPattern=1 1;" edge="1" parent="1" source="o_RwluyRDH7w843e0NGT-22" target="o_RwluyRDH7w843e0NGT-3">
          <mxGeometry relative="1" as="geometry">
            <mxPoint x="500" y="420" as="targetPoint" />
            <mxPoint x="540" y="350" as="sourcePoint" />
          </mxGeometry>
        </mxCell>
        <mxCell id="o_RwluyRDH7w843e0NGT-11" value="Secrets Manager" style="sketch=0;points=[[0,0,0],[0.25,0,0],[0.5,0,0],[0.75,0,0],[1,0,0],[0,1,0],[0.25,1,0],[0.5,1,0],[0.75,1,0],[1,1,0],[0,0.25,0],[0,0.5,0],[0,0.75,0],[1,0.25,0],[1,0.5,0],[1,0.75,0]];outlineConnect=0;fontColor=#232F3E;fillColor=#DD344C;strokeColor=#ffffff;dashed=0;verticalLabelPosition=bottom;verticalAlign=top;align=center;html=1;fontSize=12;fontStyle=0;aspect=fixed;shape=mxgraph.aws4.resourceIcon;resIcon=mxgraph.aws4.secrets_manager;fontFamily=Helvetica;" vertex="1" parent="1">
          <mxGeometry x="570" y="240" width="60" height="60" as="geometry" />
        </mxCell>
        <mxCell id="o_RwluyRDH7w843e0NGT-17" style="edgeStyle=orthogonalEdgeStyle;shape=connector;rounded=0;orthogonalLoop=1;jettySize=auto;html=1;labelBackgroundColor=default;strokeColor=#808080;strokeWidth=2;align=center;verticalAlign=middle;fontFamily=Helvetica;fontSize=11;fontColor=default;startArrow=none;startFill=0;endArrow=open;endFill=0;" edge="1" parent="1" source="o_RwluyRDH7w843e0NGT-20" target="o_RwluyRDH7w843e0NGT-3">
          <mxGeometry relative="1" as="geometry" />
        </mxCell>
        <mxCell id="o_RwluyRDH7w843e0NGT-13" value="Simple Queue&lt;br&gt;Service" style="sketch=0;points=[[0,0,0],[0.25,0,0],[0.5,0,0],[0.75,0,0],[1,0,0],[0,1,0],[0.25,1,0],[0.5,1,0],[0.75,1,0],[1,1,0],[0,0.25,0],[0,0.5,0],[0,0.75,0],[1,0.25,0],[1,0.5,0],[1,0.75,0]];outlineConnect=0;fontColor=#232F3E;fillColor=#E7157B;strokeColor=#ffffff;dashed=0;verticalLabelPosition=bottom;verticalAlign=top;align=center;html=1;fontSize=12;fontStyle=0;aspect=fixed;shape=mxgraph.aws4.resourceIcon;resIcon=mxgraph.aws4.sqs;" vertex="1" parent="1">
          <mxGeometry x="204" y="415.5" width="78" height="78" as="geometry" />
        </mxCell>
        <mxCell id="o_RwluyRDH7w843e0NGT-14" style="edgeStyle=orthogonalEdgeStyle;shape=connector;rounded=0;orthogonalLoop=1;jettySize=auto;html=1;labelBackgroundColor=default;strokeColor=#808080;strokeWidth=2;align=center;verticalAlign=middle;fontFamily=Helvetica;fontSize=11;fontColor=default;startArrow=none;startFill=0;endArrow=open;endFill=0;" edge="1" parent="1" source="o_RwluyRDH7w843e0NGT-15" target="o_RwluyRDH7w843e0NGT-13">
          <mxGeometry relative="1" as="geometry" />
        </mxCell>
        <mxCell id="o_RwluyRDH7w843e0NGT-15" value="Management&lt;br&gt;Console" style="sketch=0;outlineConnect=0;fontColor=#232F3E;gradientColor=none;fillColor=#879196;strokeColor=none;dashed=0;verticalLabelPosition=bottom;verticalAlign=top;align=center;html=1;fontSize=12;fontStyle=0;aspect=fixed;pointerEvents=1;shape=mxgraph.aws4.management_console2;fontFamily=Helvetica;" vertex="1" parent="1">
          <mxGeometry x="70" y="420" width="78" height="69" as="geometry" />
        </mxCell>
        <mxCell id="o_RwluyRDH7w843e0NGT-21" value="" style="edgeStyle=orthogonalEdgeStyle;shape=connector;rounded=0;orthogonalLoop=1;jettySize=auto;html=1;labelBackgroundColor=default;strokeColor=#808080;strokeWidth=2;align=center;verticalAlign=middle;fontFamily=Helvetica;fontSize=11;fontColor=default;startArrow=none;startFill=0;endArrow=none;endFill=0;" edge="1" parent="1" source="o_RwluyRDH7w843e0NGT-13" target="o_RwluyRDH7w843e0NGT-20">
          <mxGeometry relative="1" as="geometry">
            <mxPoint x="282" y="455" as="sourcePoint" />
            <mxPoint x="410" y="455" as="targetPoint" />
          </mxGeometry>
        </mxCell>
        <mxCell id="o_RwluyRDH7w843e0NGT-20" value="Event" style="sketch=0;outlineConnect=0;fontColor=#232F3E;gradientColor=none;fillColor=#E7157B;strokeColor=none;dashed=0;verticalLabelPosition=bottom;verticalAlign=top;align=center;html=1;fontSize=12;fontStyle=0;aspect=fixed;pointerEvents=1;shape=mxgraph.aws4.event;fontFamily=Helvetica;" vertex="1" parent="1">
          <mxGeometry x="332" y="440.5" width="28" height="28" as="geometry" />
        </mxCell>
        <mxCell id="o_RwluyRDH7w843e0NGT-23" value="" style="shape=connector;rounded=0;orthogonalLoop=1;jettySize=auto;html=1;labelBackgroundColor=default;strokeColor=#808080;strokeWidth=2;align=center;verticalAlign=middle;fontFamily=Helvetica;fontSize=11;fontColor=default;startArrow=open;startFill=0;endArrow=none;endFill=0;dashed=1;dashPattern=1 1;" edge="1" parent="1" target="o_RwluyRDH7w843e0NGT-22">
          <mxGeometry relative="1" as="geometry">
            <mxPoint x="483" y="416" as="targetPoint" />
            <mxPoint x="580" y="330" as="sourcePoint" />
          </mxGeometry>
        </mxCell>
        <mxCell id="o_RwluyRDH7w843e0NGT-22" value="RDS db instance&lt;br&gt;secret key" style="sketch=0;outlineConnect=0;fontColor=#232F3E;gradientColor=none;strokeColor=#232F3E;fillColor=#ffffff;dashed=0;verticalLabelPosition=bottom;verticalAlign=top;align=center;html=1;fontSize=12;fontStyle=0;aspect=fixed;shape=mxgraph.aws4.resourceIcon;resIcon=mxgraph.aws4.temporary_security_credential;fontFamily=Helvetica;" vertex="1" parent="1">
          <mxGeometry x="540" y="350" width="30" height="30" as="geometry" />
        </mxCell>
        <mxCell id="o_RwluyRDH7w843e0NGT-24" value="Developer PC" style="verticalLabelPosition=bottom;html=1;verticalAlign=top;align=center;strokeColor=none;fillColor=#879196;shape=mxgraph.azure.computer;pointerEvents=1;fontFamily=Helvetica;fontSize=11;fontColor=default;fillStyle=auto;" vertex="1" parent="1">
          <mxGeometry x="77" y="135.63" width="64" height="54.75" as="geometry" />
        </mxCell>
      </root>
    </mxGraphModel>
  </diagram>
</mxfile>
